<?xml version="1.0" encoding="UTF-8"?>
<svg xmlns="http://www.w3.org/2000/svg" xmlns:xlink="http://www.w3.org/1999/xlink" width="29px" height="32px" viewBox="0 0 29 31" version="1.1">
<g id="surface1">
<path style=" stroke:none;fill-rule:nonzero;fill:rgb(92.941177%,32.549021%,22.352941%);fill-opacity:1;" d="M 27.6875 6.886719 L 24.390625 8.621094 C 23.648438 7.84375 22.816406 7.160156 21.910156 6.574219 L 22.0625 2.714844 C 18.464844 2.621094 16.597656 4.210938 16.285156 4.5 C 15.816406 4.433594 15.347656 4.386719 14.863281 4.371094 L 14.136719 4.371094 C 13.65625 4.386719 13.183594 4.433594 12.714844 4.5 C 12.40625 4.210938 10.535156 2.621094 6.941406 2.714844 L 7.09375 6.574219 C 6.1875 7.160156 5.351562 7.84375 4.613281 8.621094 L 1.3125 6.886719 C -0.695312 8.507812 0.34375 12.722656 0.34375 12.722656 L 0.359375 13.128906 C 0.375 15.664062 0.425781 20.785156 0.617188 24.203125 C 0.710938 25.898438 2.410156 26.484375 3.574219 27.0625 C 4.003906 27.28125 4.65625 27.574219 5.441406 27.90625 C 7.703125 28.875 11.113281 30.171875 13.808594 30.90625 C 14.261719 31.03125 14.742188 31.03125 15.195312 30.90625 C 17.886719 30.171875 21.296875 28.875 23.558594 27.90625 C 24.347656 27.574219 24.996094 27.28125 25.429688 27.0625 C 26.59375 26.484375 28.292969 25.898438 28.386719 24.203125 C 28.574219 20.785156 28.628906 15.664062 28.640625 13.128906 L 28.660156 12.722656 C 28.660156 12.722656 29.699219 8.507812 27.6875 6.886719 Z M 10.078125 17.933594 C 9.789062 18.648438 9.207031 19.222656 8.480469 19.511719 C 5.769531 20.585938 3.210938 18.066406 4.304688 15.398438 C 4.59375 14.683594 5.179688 14.105469 5.910156 13.824219 C 8.617188 12.765625 11.15625 15.273438 10.078125 17.933594 Z M 14.5 27.722656 C 14.308594 27.453125 12.136719 20.628906 12.214844 19.03125 C 12.445312 16.53125 16.558594 16.53125 16.789062 19.03125 C 16.855469 20.667969 14.707031 27.402344 14.5 27.722656 Z M 20.523438 19.511719 C 19.796875 19.222656 19.214844 18.648438 18.921875 17.933594 C 17.847656 15.273438 20.386719 12.765625 23.089844 13.824219 C 23.820312 14.105469 24.40625 14.683594 24.699219 15.398438 C 25.792969 18.066406 23.234375 20.585938 20.523438 19.511719 Z M 20.523438 19.511719 "/>
<path style=" stroke:none;fill-rule:nonzero;fill:rgb(100%,100%,100%);fill-opacity:1;" d="M 16.789062 19.03125 C 16.558594 16.53125 12.445312 16.53125 12.214844 19.03125 C 12.136719 20.628906 14.308594 27.453125 14.5 27.722656 C 14.707031 27.402344 16.855469 20.667969 16.789062 19.03125 Z M 16.789062 19.03125 "/>
<path style=" stroke:none;fill-rule:nonzero;fill:rgb(100%,100%,100%);fill-opacity:1;" d="M 5.910156 13.824219 C 5.179688 14.105469 4.59375 14.683594 4.304688 15.398438 C 3.210938 18.066406 5.769531 20.585938 8.480469 19.511719 C 9.207031 19.222656 9.789062 18.648438 10.078125 17.933594 C 11.15625 15.273438 8.617188 12.765625 5.910156 13.824219 Z M 5.910156 13.824219 "/>
<path style=" stroke:none;fill-rule:nonzero;fill:rgb(100%,100%,100%);fill-opacity:1;" d="M 24.699219 15.398438 C 24.40625 14.683594 23.820312 14.105469 23.089844 13.824219 C 20.386719 12.765625 17.847656 15.273438 18.921875 17.933594 C 19.214844 18.648438 19.796875 19.222656 20.523438 19.511719 C 23.234375 20.585938 25.792969 18.066406 24.699219 15.398438 Z M 24.699219 15.398438 "/>
<path style=" stroke:none;fill-rule:nonzero;fill:rgb(0%,0%,0%);fill-opacity:1;" d="M 9.695312 16.660156 C 9.433594 15.570312 8.320312 14.894531 7.214844 15.152344 C 6.105469 15.410156 5.421875 16.5 5.683594 17.59375 C 5.945312 18.683594 7.054688 19.359375 8.160156 19.101562 C 9.269531 18.84375 9.953125 17.75 9.695312 16.660156 Z M 9.695312 16.660156 "/>
<path style=" stroke:none;fill-rule:nonzero;fill:rgb(0%,0%,0%);fill-opacity:1;" d="M 22.765625 15.691406 C 21.960938 14.898438 20.65625 14.898438 19.851562 15.691406 C 19.046875 16.484375 19.046875 17.769531 19.851562 18.5625 C 20.65625 19.355469 21.960938 19.355469 22.765625 18.5625 C 23.570312 17.769531 23.570312 16.484375 22.765625 15.691406 Z M 22.765625 15.691406 "/>
</g>
</svg>
